# xmcd
# Track frame offsets:
# 150
# 14727
# 33741
# 50209
# 68786
# 83895
# 98342
# 117758
# 133547
# 149050
# 162228
#
# Disc length: 2325 seconds
# Revision: 0
# Processed by: cddbd v1.4PL0 Copyright (c) Steve Scherf et al.
# Submitted via: VisiTrax 2.9.5.181 - For more info visit www.synapsa.com
#
DISCID=9c09130b
DTITLE=Merle Haggard - My Love Affair With Trains
DYEAR=1900
DGENRE=
TTITLE0=My Love Affair With Trains
TTITLE1=Union Station
TTITLE2=Here Comes The Freedom Train
TTITLE3=So Long Train Whistle
TTITLE4=The Silver Ghost
TTITLE5=The More Trains To Ride
TTITLE6=The Coming And The Going Of The Trains
TTITLE7=I Won't Give Up My Train
TTITLE8=Where Have All The Hobos Gone
TTITLE9=Railroad Lady
TTITLE10=The Hobo
EXTD=
EXTT0=
EXTT1=
EXTT2=
EXTT3=
EXTT4=
EXTT5=
EXTT6=
EXTT7=
EXTT8=
EXTT9=
EXTT10=
PLAYORDER=
